<?xml version="1.0" encoding="UTF-8"?>
<svg xmlns="http://www.w3.org/2000/svg" width="32" height="32" viewBox="0 0 32 32" role="img" aria-label="CPA logo">
  <defs>
    <linearGradient id="g" x1="0" y1="0" x2="1" y2="1">
      <stop offset="0" stop-color="#00ff88"/>
      <stop offset="1" stop-color="#a6ffcf"/>
    </linearGradient>
    <filter id="glow" x="-50%" y="-50%" width="200%" height="200%">
      <feGaussianBlur stdDeviation="1.2" result="blur"/>
      <feMerge>
        <feMergeNode in="blur"/>
        <feMergeNode in="SourceGraphic"/>
      </feMerge>
    </filter>
  </defs>
  <!-- dark background -->
  <rect x="0" y="0" width="32" height="32" rx="6" fill="#0f1624"/>
  <!-- CPA letters (vector paths), simplified for 32px -->
  <!-- C -->
  <path d="M6.5 10.2a6.3 6.3 0 1 1 0 11.6v-2.7a3.6 3.6 0 1 0 0-6.2z" fill="url(#g)" filter="url(#glow)"/>
  <!-- P -->
  <path d="M13 10.2h2.6c2.4 0 4.2 1.5 4.2 3.7s-1.8 3.7-4.2 3.7H15v4.2H13zm2 2v3.4h0.6c1.3 0 2.2-0.7 2.2-1.7 0-1-0.9-1.7-2.2-1.7z" fill="url(#g)" filter="url(#glow)"/>
  <!-- A -->
  <path d="M22.6 21.8l3.5-11.6h2.1l-3.6 11.6zm1.7-5h4.6l-0.6 2h-3.4z" fill="url(#g)" filter="url(#glow)"/>
</svg>


